<svg width="42" height="42" viewBox="0 0 42 42" fill="none" xmlns="http://www.w3.org/2000/svg">
    <path d="M40.7991 5.74178C40.1813 5.12285 39.1788 5.12179 38.5609 5.73915L19.5712 24.6787L12.7198 17.2374C12.1278 16.5948 11.1269 16.5531 10.4832 17.145C9.83995 17.737 9.79877 18.7385 10.3908 19.3817L18.3582 28.0344C18.5025 28.1913 18.6771 28.3174 18.8714 28.4051C19.0657 28.4928 19.2757 28.5402 19.4889 28.5447C19.5004 28.5452 19.5116 28.5452 19.5227 28.5452C19.9416 28.545 20.3433 28.379 20.6402 28.0835L40.796 7.98049C41.4154 7.36321 41.4165 6.36071 40.7991 5.74178Z" fill="white"/>
    <path d="M40.417 19.417C39.5428 19.417 38.8342 20.1256 38.8342 21C38.8342 30.8342 30.8342 38.8342 21 38.8342C11.1664 38.8342 3.16583 30.8342 3.16583 21C3.16583 11.1664 11.1664 3.16583 21 3.16583C21.8743 3.16583 22.583 2.45725 22.583 1.58296C22.583 0.708586 21.8743 0 21 0C9.42047 0 0 9.42047 0 21C0 32.579 9.42047 42 21 42C32.579 42 42 32.579 42 21C42 20.1257 41.2914 19.417 40.417 19.417Z" fill="#F5CB72"/>
</svg>


